<svg xmlns="http://www.w3.org/2000/svg" viewBox="0 0 31 37" width="31" height="37">
	<style>
		tspan { white-space:pre }
		.shp0 { fill: #292929 } 
	</style>
	<path id="Path 306" fill-rule="evenodd" class="shp0" d="M15 36.55L4.39 25.94C-1.46 20.08 -1.46 10.58 4.39 4.73C10.25 -1.13 19.75 -1.13 25.61 4.73C31.46 10.58 31.46 20.08 25.61 25.94L15 36.55ZM15 31.83L23.25 23.58C27.81 19.03 27.81 11.64 23.25 7.08C18.69 2.53 11.31 2.53 6.75 7.08C2.19 11.64 2.19 19.03 6.75 23.58L15 31.83ZM15 22C11.32 22 8.33 19.02 8.33 15.33C8.33 11.65 11.32 8.67 15 8.67C18.68 8.67 21.67 11.65 21.67 15.33C21.67 19.02 18.68 22 15 22ZM15 18.67C16.84 18.67 18.33 17.17 18.33 15.33C18.33 13.49 16.84 12 15 12C13.16 12 11.67 13.49 11.67 15.33C11.67 17.17 13.16 18.67 15 18.67Z" />
</svg>