<svg xmlns="http://www.w3.org/2000/svg" viewBox="0 0 19 19" width="19" height="19">
	<style>
		tspan { white-space:pre }
		.shp0 { fill: #2f89fc } 
	</style>
	<path id="Path 1483" fill-rule="evenodd" class="shp0" d="M9.5 19C4.25 19 0 14.75 0 9.5C0 4.25 4.25 0 9.5 0C14.75 0 19 4.25 19 9.5C19 14.75 14.75 19 9.5 19ZM9.5 17.1C13.7 17.1 17.1 13.7 17.1 9.5C17.1 5.3 13.7 1.9 9.5 1.9C5.3 1.9 1.9 5.3 1.9 9.5C1.9 13.7 5.3 17.1 9.5 17.1ZM8.55 4.75L10.45 4.75L10.45 6.65L8.55 6.65L8.55 4.75ZM8.55 8.55L10.45 8.55L10.45 14.25L8.55 14.25L8.55 8.55Z" />
</svg>