<svg xmlns="http://www.w3.org/2000/svg" viewBox="0 0 41 40" width="41" height="40">
	<style>
		tspan { white-space:pre }
		.shp0 { fill: #ffffff } 
	</style>
	<path id="Path 329" fill-rule="evenodd" class="shp0" d="M10.98 0.82L11.08 0.86L11.13 0.91L17.27 7.24L17.41 7.39L17.36 7.44C18.72 8.7 18.7 10.85 17.41 12.14L14.34 15.21C14.81 16.29 16.1 19.05 18.61 21.44C21.14 23.86 23.78 25.23 24.89 25.76L27.96 22.69C29.24 21.42 31.49 21.42 32.76 22.69L32.81 22.79L39.05 29.02C40.32 30.3 40.32 32.5 39.05 33.77L34.2 38.62C32.76 39.85 30.74 40.3 28.88 39.67L28.83 39.67C25.22 38.27 17.94 35.07 11.41 28.54C4.91 22.04 1.58 14.85 0.28 11.13C0.28 11.12 0.29 11.09 0.28 11.08C-0.36 9.31 0.1 7.27 1.58 5.9L1.53 5.85L6.33 0.91L6.38 0.86L6.47 0.82C7.13 0.29 7.92 0 8.73 0C9.53 0 10.32 0.29 10.98 0.82ZM8.39 3.21L3.74 7.96L3.64 8.06C3.1 8.53 2.93 9.45 3.16 10.07C4.33 13.42 7.5 20.31 13.57 26.39C19.6 32.41 26.36 35.38 29.84 36.75C30.73 37.05 31.48 36.92 32.19 36.32L36.89 31.62C37.15 31.35 37.15 31.45 36.89 31.18L30.6 24.9C30.34 24.63 30.39 24.63 30.12 24.9L25.57 29.46L24.61 29.02C24.61 29.02 20.4 27.24 16.83 23.99L16.5 23.7C12.79 20.17 11.03 15.45 11.03 15.45L10.69 14.49L11.41 13.82L15.25 9.98C15.44 9.79 15.34 9.63 15.35 9.64L15.2 9.5L9.06 3.21C8.95 3.12 8.84 3.07 8.73 3.07C8.61 3.07 8.5 3.12 8.39 3.21Z" />
</svg>