<svg xmlns="http://www.w3.org/2000/svg" viewBox="0 0 24 24" width="24" height="24">
	<style>
		tspan { white-space:pre }
		.shp0 { opacity: 0.502;fill: #000000 } 
	</style>
	<path id="Search" fill-rule="evenodd" class="shp0" d="M23.79 22.29L22.16 23.92L17.23 18.98C15.39 20.45 13.11 21.25 10.75 21.25C5.03 21.25 0.38 16.6 0.38 10.88C0.38 5.15 5.03 0.5 10.75 0.5C16.48 0.5 21.13 5.15 21.13 10.88C21.13 13.23 20.33 15.51 18.86 17.35L23.79 22.29ZM18.82 10.88C18.82 6.42 15.21 2.81 10.75 2.81C6.29 2.81 2.68 6.42 2.68 10.88C2.68 15.33 6.29 18.94 10.75 18.94C12.85 18.95 14.87 18.13 16.37 16.67L16.54 16.5C18.01 14.99 18.82 12.97 18.82 10.88Z" />
</svg>