<svg xmlns="http://www.w3.org/2000/svg" viewBox="0 0 61 56" width="61" height="56">
	<style>
		tspan { white-space:pre }
		.shp0 { fill: #7b7b7b } 
	</style>
	<path id="Path 1482" class="shp0" d="M27.76 0C27.03 0.01 26.21 0.33 25.46 1.08L12.26 16.01L2.31 16.01C1.03 16.01 0 17.04 0 18.32L0 36.78C0 38.05 1.03 39.08 2.31 39.08L12.26 39.08L25.38 53.94C27.69 56.25 30 55.07 30 51.93L30 2.81C30 0.98 29 -0.01 27.76 0ZM44.49 4.61C43.49 4.79 42.71 5.6 42.59 6.63C42.49 7.64 43.05 8.61 43.99 9.02C50.77 12.43 55.39 19.41 55.39 27.55C55.39 35.68 50.77 42.66 43.99 46.08C43.14 46.37 42.54 47.13 42.45 48.01C42.35 48.91 42.77 49.77 43.54 50.23C44.3 50.7 45.26 50.68 46.01 50.2C54.3 46.01 60 37.45 60 27.55C60 17.65 54.3 9.09 46.01 4.91C45.61 4.68 45.16 4.58 44.71 4.61C44.64 4.61 44.57 4.61 44.49 4.61ZM39.01 13.56C38 13.63 37.15 14.37 36.93 15.37C36.71 16.37 37.18 17.4 38.08 17.89C41.64 20.09 43.84 23.6 43.84 27.55C43.84 31.52 41.6 35.08 38 37.28C37.24 37.69 36.76 38.49 36.77 39.36C36.78 40.22 37.27 41.01 38.06 41.39C38.84 41.78 39.76 41.69 40.46 41.18C45.24 38.25 48.47 33.26 48.47 27.55C48.47 21.87 45.26 16.86 40.53 13.91C40.15 13.67 39.69 13.55 39.23 13.56C39.16 13.56 39.08 13.56 39.01 13.56Z" />
</svg>