<svg xmlns="http://www.w3.org/2000/svg" viewBox="0 0 151 151" width="151" height="151">
	<style>
		tspan { white-space:pre }
		.shp0 { fill: #2f89fc } 
	</style>
	<path id="Path 337" fill-rule="evenodd" class="shp0" d="M150 75.01C150 116.36 116.36 150 75.01 150C33.64 150 0 116.36 0 75.01C0 33.64 33.64 0 75.01 0C116.36 0 150 33.64 150 75.01ZM12.49 75.01C12.49 109.59 40.41 137.51 75.01 137.51C109.59 137.51 137.51 109.59 137.51 75.01C137.51 40.41 109.59 12.49 75.01 12.49C40.41 12.49 12.49 40.41 12.49 75.01ZM103.72 38.08L109.97 42.59C112.44 43.83 113.16 45.59 111.92 47.47L74.42 102.53C73.18 104.41 71.17 105.08 69.93 105.08C68.05 105.08 66.29 103.77 65.05 103.12L43.16 81.26C41.92 79.99 41.92 77.47 43.16 75.58L48.83 69.93C50.07 68.67 52.48 68.81 53.72 70.7L68.17 84.95L98.83 39.46C99.45 38.52 100.25 38.05 101.17 37.9C102.11 37.75 103.07 37.78 103.72 38.08Z" />
</svg>